<svg width="26" height="32" viewBox="0 0 26 32" fill="none" xmlns="http://www.w3.org/2000/svg">
<g clip-path="url(#clip0_405_1611)" filter="url(#filter0_d_405_1611)">
<path d="M15.5001 6.99939H10.5001C10.1023 6.99939 9.72076 7.15742 9.43946 7.43873C9.15816 7.72003 9.00012 8.10156 9.00012 8.49939C9.00012 8.89721 9.15816 9.27875 9.43946 9.56005C9.72076 9.84135 10.1023 9.99939 10.5001 9.99939H15.5001C15.8979 9.99939 16.2795 9.84135 16.5608 9.56005C16.8421 9.27875 17.0001 8.89721 17.0001 8.49939C17.0001 8.10156 16.8421 7.72003 16.5608 7.43873C16.2795 7.15742 15.8979 6.99939 15.5001 6.99939Z" fill="#374957"/>
<path d="M13.5001 12H10.5001C10.1023 12 9.72077 12.158 9.43946 12.4393C9.15816 12.7206 9.00012 13.1022 9.00012 13.5C9.00012 13.8978 9.15816 14.2794 9.43946 14.5607C9.72077 14.842 10.1023 15 10.5001 15H13.5001C13.8979 15 14.2795 14.842 14.5608 14.5607C14.8421 14.2794 15.0001 13.8978 15.0001 13.5C15.0001 13.1022 14.8421 12.7206 14.5608 12.4393C14.2795 12.158 13.8979 12 13.5001 12Z" fill="#374957"/>
<path d="M16.5 0H9.5C8.0418 0.00158817 6.64377 0.581561 5.61267 1.61267C4.58156 2.64377 4.00159 4.0418 4 5.5V22.5C3.99992 22.7557 4.06523 23.0073 4.18973 23.2306C4.31422 23.454 4.49376 23.6419 4.7113 23.7764C4.92883 23.9108 5.17713 23.9874 5.43262 23.9989C5.6881 24.0104 5.94227 23.9564 6.171 23.842L9.453 22.2L12.253 23.8C12.4796 23.9294 12.736 23.9975 12.997 23.9975C13.258 23.9975 13.5144 23.9294 13.741 23.8L16.541 22.2L19.823 23.842C20.0519 23.9578 20.3068 24.0129 20.5631 24.0021C20.8194 23.9913 21.0687 23.915 21.2871 23.7804C21.5055 23.6457 21.6858 23.4573 21.8106 23.2332C21.9354 23.009 22.0006 22.7566 22 22.5V5.5C21.9984 4.0418 21.4184 2.64377 20.3873 1.61267C19.3562 0.581561 17.9582 0.00158817 16.5 0V0ZM19 20.073L17.17 19.158C16.9492 19.0475 16.7045 18.9933 16.4576 19.0001C16.2108 19.0069 15.9694 19.0745 15.755 19.197L13 20.772L10.245 19.2C10.0306 19.0775 9.78923 19.0099 9.54239 19.0031C9.29555 18.9963 9.05085 19.0505 8.83 19.161L7 20.073V5.5C7 4.83696 7.26339 4.20107 7.73223 3.73223C8.20107 3.26339 8.83696 3 9.5 3H16.5C17.163 3 17.7989 3.26339 18.2678 3.73223C18.7366 4.20107 19 4.83696 19 5.5V20.073Z" fill="#374957"/>
</g>
<defs>
<filter id="filter0_d_405_1611" x="-3" y="0" width="32" height="32" filterUnits="userSpaceOnUse" color-interpolation-filters="sRGB">
<feFlood flood-opacity="0" result="BackgroundImageFix"/>
<feColorMatrix in="SourceAlpha" type="matrix" values="0 0 0 0 0 0 0 0 0 0 0 0 0 0 0 0 0 0 127 0" result="hardAlpha"/>
<feOffset dy="4"/>
<feGaussianBlur stdDeviation="2"/>
<feComposite in2="hardAlpha" operator="out"/>
<feColorMatrix type="matrix" values="0 0 0 0 0 0 0 0 0 0 0 0 0 0 0 0 0 0 0.25 0"/>
<feBlend mode="normal" in2="BackgroundImageFix" result="effect1_dropShadow_405_1611"/>
<feBlend mode="normal" in="SourceGraphic" in2="effect1_dropShadow_405_1611" result="shape"/>
</filter>
<clipPath id="clip0_405_1611">
<rect width="24" height="24" fill="white" transform="translate(1)"/>
</clipPath>
</defs>
</svg>
