<svg width="18" height="18" viewBox="0 0 18 18" fill="none" xmlns="http://www.w3.org/2000/svg">
<g clip-path="url(#clip0_7_66)">
<path d="M9 11.2438C7.75737 11.2438 6.75 12.2512 6.75 13.4938V17.9938H11.25V13.4938C11.25 12.2512 10.2426 11.2438 9 11.2438Z" fill="#E9ECEF"/>
<path d="M12.75 13.4941V17.9941H15.75C16.9926 17.9941 18 16.9868 18 15.7441V8.90341C18.0002 8.51377 17.8488 8.13936 17.5777 7.85941L11.2043 0.969136C10.0797 -0.247622 8.18167 -0.322329 6.96491 0.80225C6.90711 0.855687 6.85143 0.911339 6.79802 0.969136L0.435762 7.85716C0.156551 8.13827 -0.000105416 8.51845 5.32206e-08 8.91466V15.7441C5.32206e-08 16.9868 1.00737 17.9941 2.25 17.9941H5.24999V13.4941C5.26402 11.449 6.9152 9.77898 8.9088 9.73088C10.9691 9.68117 12.7343 11.3797 12.75 13.4941Z" fill="#E9ECEF"/>
<path d="M9 11.2438C7.75737 11.2438 6.75 12.2512 6.75 13.4938V17.9938H11.25V13.4938C11.25 12.2512 10.2426 11.2438 9 11.2438Z" fill="#E9ECEF"/>
</g>
<defs>
<clipPath id="clip0_7_66">
<rect width="18" height="18" fill="white"/>
</clipPath>
</defs>
</svg>
